<?xml version="1.0" encoding="UTF-8"?>
<svg class="svg-map-icon svg-map-paradise" fill="none" stroke="currentColor" stroke-linecap="round" stroke-linejoin="round" stroke-width="5px" xmlns="http://www.w3.org/2000/svg" viewBox="0 0 173.27 171.26">
  <path d="M4.97,115.58c34.43-41.05,78.13-25.16,104.62-9.27,26.49-17.22,49.53-9.27,61.18,9.27"/>
  <path d="M12.91,136.76c18.54,13.24,33.11-31.78,59.59-6.62,10.95,10.4,26.49,14.57,37.08,0,10.16-13.96,26.49-11.92,34.43,0,4.7,7.06,11.92,14.57,21.89,6.88"/>
  <path d="M35.43,160.6c18.54-25.16,29.13-13.24,39.73-2.65,7.55,7.55,22.64,13.01,30.55,2.65,13.15-17.22,24.17-13.24,29.91-7.28s12.37,9.93,14.21,4.55"/>
  <path d="M60.47,89.52c21.31-37.51,62.74-13.92,62.55,10.04"/>
  <path d="M87.87,95.64c1.85-22.44,4.5-51.57,8.47-60.84"/>
  <path d="M73.83,53.34c11.92-14.57,33.11-23.84,58.27-15.89"/>
  <path d="M64.56,25.53c25.16,2.65,47.67,15.89,49,35.76"/>
  <path d="M81.78,3.01c-1.46-.79,21.76,5.64,14.57,34.43"/>
</svg>