<svg class="svg-icon"
    fill="currentColor"
    viewBox="0 0 1024 1024" version="1.1" xmlns="http://www.w3.org/2000/svg">
    <path
        d="M844 571.2H216.6c-8.3 0-15-6.7-15-15s6.7-15 15-15H844c8.3 0 15 6.7 15 15s-6.8 15-15 15z"
        fill="" />
    <path
        d="M593.3 781H468c-70.9 0-137.9-27.3-188.7-76.7-50.9-49.6-79.6-115.9-80.6-186.7V475.3c0-8.3 6.7-15 15-15h634c8.3 0 15 6.7 15 15V517.6c-1.1 70.7-29.7 137-80.6 186.7-50.9 49.4-117.9 76.7-188.8 76.7zM228.6 490.3V517.1c2 129 109.3 233.9 239.4 233.9h125.3c130 0 237.4-104.9 239.3-233.9V490.3h-604z"
        fill="" />
    <path
        d="M259.4 488.9c-6.5 0-12.4-4.2-14.4-10.7-13.5-45.7-1-95 32.7-128.7 5.9-5.9 15.4-5.9 21.2 0l109.3 109.3c5.9 5.9 5.9 15.4 0 21.2-5.9 5.9-15.4 5.9-21.2 0l-97.9-97.9c-18.4 24.9-24.3 57.3-15.3 87.5 2.4 7.9-2.2 16.3-10.1 18.6-1.5 0.5-2.9 0.7-4.3 0.7z"
        fill="" />
    <path
        d="M323.3 487.3c-4.5 0-9-2-12-5.9-11.3-14.8-17.2-32.5-17.2-51.2 0-14.5 3.7-28.8 10.8-41.3 4.1-7.2 13.2-9.8 20.4-5.7 7.2 4.1 9.8 13.2 5.7 20.4-4.5 8.1-6.9 17.3-6.9 26.7 0 12 3.8 23.5 11.1 33 5 6.6 3.7 16-2.9 21-2.7 2-5.9 3-9 3zM408.1 487.4c-1 0-2-0.1-3-0.3-8.1-1.7-13.4-9.6-11.7-17.7 7.9-39 42.6-67.2 82.4-67.2 38.2 0 71.6 25.7 81.3 62.6 2.1 8-2.7 16.2-10.7 18.3-8 2.1-16.2-2.7-18.3-10.7-6.2-23.7-27.7-40.2-52.3-40.2-25.6 0-47.9 18.2-53 43.2-1.5 7.1-7.7 12-14.7 12z"
        fill="" />
    <path
        d="M368.5 441.6c-8.3 0-15-6.7-15-15 0-48.6 26.6-93.3 69.3-116.6 4.5-2.4 9.9-2.4 14.4 0 38.4 20.9 64 59.2 68.6 102.6 0.9 8.2-5.1 15.6-13.3 16.5-8.2 0.9-15.6-5.1-16.5-13.3-3.2-30.7-20.2-58.2-45.9-75.1-28.9 18.9-46.5 51.1-46.5 86-0.1 8.2-6.8 14.9-15.1 14.9zM638.5 484.4c-0.6 0-1.2 0-1.8-0.1-8.2-1-14.1-8.5-13.1-16.7 3.4-27.8-4.6-55.5-22.2-77.2-26.4 7.3-48.8 24.7-62.2 48.7-4.1 7.2-13.2 9.8-20.4 5.7-7.2-4.1-9.8-13.2-5.7-20.4 19.2-34.2 52.3-58 90.9-65.4 5-1 10.2 0.7 13.7 4.4 27.6 28.9 40.7 68.2 35.8 107.8-1.1 7.6-7.5 13.2-15 13.2z"
        fill="" />
    <path
        d="M791 484.7c-0.5 0-1 0-1.5-0.1-8.2-0.8-14.3-8.2-13.5-16.4 0.6-6.1-1.5-12.3-5.8-16.8-3.6-3.8-5-9.2-3.6-14.3s5.3-9 10.4-10.5c7.3-2 12.8-7.6 14.8-14.9 1.5-5.5 0.8-11.2-2-16.2s-7.4-8.5-12.9-10c-4.1-1.1-8.3-1-12.3 0.3-5.6 1.8-11.7 0.3-15.6-4-4-4.3-5.1-10.5-3-15.9 0.5-1.3 0.9-2.5 1.2-3.6 4.8-17.4-5.5-35.4-22.8-40.1-17.1-4.7-35.1 5.4-40 22.4-1.4 4.8-5 8.6-9.7 10.1-4.7 1.5-9.9 0.7-13.8-2.4-2.2-1.7-4.7-2.9-7.4-3.7-5.5-1.5-11.2-0.8-16.2 2s-8.5 7.4-10 12.9c-0.3 1.2-0.6 2.4-0.7 3.7-0.8 8.2-8.1 14.3-16.3 13.5-8.2-0.8-14.3-8.1-13.5-16.3 0.3-3 0.8-5.9 1.6-8.8 3.6-13.2 12.2-24.2 24.1-31s25.8-8.5 39-4.9c0.5 0.1 1 0.3 1.4 0.4 14.4-22.6 42.5-34.3 69.5-26.9 28.3 7.8 46.7 33.9 46 62 2.2 0.3 4.3 0.8 6.4 1.3 13.2 3.6 24.2 12.2 31 24.1 6.8 11.9 8.5 25.8 4.9 39-3 10.9-9.6 20.5-18.4 27.2 3.1 7.6 4.3 15.9 3.5 24.2-0.6 7.9-7.2 13.7-14.8 13.7z"
        fill="" />
    <path
        d="M675.7 485.8c-1.5 0-3.1-0.2-4.6-0.7-7.9-2.5-12.2-11-9.7-18.9l33.3-103.3c2.5-7.9 11-12.2 18.9-9.7 7.9 2.5 12.2 11 9.7 18.9L690 475.4c-2.1 6.4-8 10.4-14.3 10.4z"
        fill="" />
    <path
        d="M692.3 451.1c-7.5 0-14-5.6-14.9-13.3-0.9-8.2 5-15.7 13.2-16.6l52.7-6c8.2-0.9 15.7 5 16.6 13.2 0.9 8.2-5 15.7-13.2 16.6l-52.7 6c-0.5 0.1-1.1 0.1-1.7 0.1z"
        fill="" />
    <path
        d="M689.7 448.1c-4.9 0-9.7-2.4-12.6-6.8l-28-43c-4.5-6.9-2.6-16.2 4.4-20.8 6.9-4.5 16.2-2.6 20.8 4.4l28 43c4.5 6.9 2.6 16.2-4.4 20.8-2.6 1.6-5.4 2.4-8.2 2.4z"
        fill="" />
</svg>