<?xml version="1.0" encoding="UTF-8"?>
<svg class="svg-map-icon svg-map-alaska" fill="none" stroke-linecap="round" stroke-linejoin="round" stroke-width="5px" xmlns="http://www.w3.org/2000/svg" stroke="currentColor" viewBox="0 0 173.27 171.26">
  <path d="M2.5,134.41c15.25,3.05,22.88-1.53,30.51-9.15,7.63-7.63,23.32-8.42,33.47,0,18.39,15.25,30.82,9.56,39.62,2.19,15.38-12.87,29.11-9.82,35.75,0,6.77,10.01,20.82,6.96,26.92,2.38"/>
  <path d="M25.38,158.82c10.68-13.73,33.56-13.73,44.24-4.58s24.41,10.68,35.08,1.53c10.68-9.15,22.88-16.78,38.13,1.53"/>
  <polyline points="8.81 109.21 45.42 45.14 94.99 99.09 111.01 86.33 118.63 97.01 152.19 72.6 166.98 109.21"/>
  <polyline points="43.37 94.72 101.86 14.64 137.74 83.11"/>
  <line x1="94.99" y1="66.36" x2="117.84" y2="45.14"/>
  <line x1="146.09" y1="104.63" x2="158.8" y2="88.95"/>
  <line x1="65.34" y1="104.63" x2="81.27" y2="88.95"/>
  <line x1="30.16" y1="106.16" x2="19.25" y2="90.93"/>
</svg>