<?xml version="1.0" encoding="UTF-8"?>
<svg class="svg-map-icon svg-map-costa-rica" stroke-linejoin="round" fill="none" stroke="currentColor" stroke-linecap="round" stroke-width="5px" stroke-miterlimit="10" xmlns="http://www.w3.org/2000/svg" viewBox="0 0 173.27 171.26">

  <path d="M9.76,140.69c14.04,2.81,21.06-1.4,28.07-8.42s21.45-7.75,30.8,0c16.93,14.04,28.36,8.8,36.46,2.02,14.15-11.84,26.78-9.04,32.9,0,6.23,9.22,19.15,6.4,24.77,2.19"/>
  <path d="M30.81,163.15c9.83-12.63,30.88-12.63,40.71-4.21,9.83,8.42,22.46,9.83,32.28,1.4s21.06-15.44,35.09,1.4"/>
  <path d="M9.19,123.2c8.42-9.83,28.07-25.27,51.94-9.83,18.25-14.04,74.4-25.27,92.64,8.42"/>
  <path d="M33.05,106.36c11.23-8.42,32.28-49.13,32.28-60.36h38.38s11.46,45.25,22.33,55.61"/>
  <line x1="79.55" y1="48.25" x2="79.55" y2="58.02"/>
  <line x1="90.6" y1="64.25" x2="90.6" y2="79.69"/>
  <line x1="103.23" y1="89.51" x2="103.23" y2="97.94"/>
  <line x1="63.93" y1="95.13" x2="63.93" y2="109.55"/>
  <path d="M69.54,27.75h30.47c7.43-5.61,8.83-18.25,3.22-22.46s-16.84-4.21-21.76,3.85c-13.34-9.46-31.58,14.4-11.93,18.61Z"/>
</svg>