<?xml version="1.0" encoding="UTF-8"?>
<svg class="svg-map-icon svg-map-great-lakes" fill="none" stroke="currentColor" stroke-linecap="round" stroke-linejoin="round" stroke-width="4px" xmlns="http://www.w3.org/2000/svg" viewBox="0 0 173.27 171.26">
  <line x1="2.92" y1="115.92" x2="170.77" y2="115.92"/>
  <path d="M12.16,144.96c13.2,2.64,19.8-1.32,26.4-7.92s20.18-7.29,28.96,0c15.92,13.2,26.67,8.28,34.29,1.9,13.31-11.14,25.19-8.5,30.94,0s18.01,6.02,23.29,2.06"/>
  <path d="M31.96,166.08c9.24-11.88,29.04-11.88,38.28-3.96,9.24,7.92,21.12,9.24,30.36,1.32,9.24-7.92,19.8-14.52,33,1.32"/>
  <polyline points="23.17 115.92 23.17 52.55 6.88 93.48 39.88 93.48 22.72 52.55"/>
  <polyline points="149.44 115.92 149.44 52.55 133.15 93.48 166.15 93.48 148.99 52.55"/>
  <polyline points="84.1 115.92 84.1 14.77 116.73 91.5 55.6 91.5 84.76 14.27"/>
  <polyline points="103.24 72.35 86.85 82.61 64.55 67.81"/>
  <polyline points="74.2 51.23 83.89 58.75 97.34 51.23"/>
</svg>