<?xml version="1.0" encoding="utf-8"?>
<svg version="1.1" class="svg-map-icon svg-map-paradise" fill="none" stroke="currentColor" stroke-linecap="round" stroke-linejoin="round" stroke-width="5px" xmlns="http://www.w3.org/2000/svg" xmlns:xlink="http://www.w3.org/1999/xlink" x="0px" y="0px"
	 viewBox="0 0 173.3 171.3" style="enable-background:new 0 0 173.3 171.3;" xml:space="preserve">
<path d="M10.9,101.5c6.6-9.5,38.8-17.3,53.3,0"/>
<polyline points="37.6,89.5 37.6,33.7 91.3,33.7 91.3,104.9 "/>
<line x1="54.7" y1="51" x2="54.7" y2="60.5"/>
<line x1="73" y1="69.3" x2="73" y2="78.1"/>
<path d="M146.8,113.8V75.9h-26.2c0,0-3.8,17-8.8,17c-5,0-20.5,0-20.5,0"/>
<path d="M98.2,18.2v15.5H30.7V10c0,0,20.9,18.3,26.6,1.3C69.6,16.3,91.5,24.2,98.2,18.2z"/>
<path d="M10.9,135.8c22.7,0,22.4-17,39.4-17c17.3,0,21.8,17,34.7,17c17.7,0,24-17,36.3-17c14.8,0,12,14.5,35.6,15.8"/>
<path d="M28.9,158.2c9.1-8.2,28.4-16.1,40.1-5.7c11.7,10.4,26.2,9.5,36.3,0.3c10.1-9.2,18.8-10.4,33.7,0.9"/>
</svg>
